<svg xmlns="http://www.w3.org/2000/svg" viewBox="0 0 41 50.9"><title>c</title><g id="Layer_2" data-name="Layer 2"><g id="Layer_1-2" data-name="Layer 1"><path d="M18.77,0Q29.53,0,32.33,6.71a7,7,0,0,1,.79,2.19H28v1h5v.56c-.39-.23-.5-.65-.71-1.56H41v1H33V10a47.08,47.08,0,0,1,.8,6.09,85,85,0,0,1-8.8.66V17Q25,8.9,19.14,8.9h-1q-4.39,0-5.35,3.53A31.6,31.6,0,0,0,12,20.29v6.62l-.07,1H8v2h3v13H25v-13h8v13H29v7H19v1H12v-1H5v-3h5v-2H3v-6H0v-7H1.65c-.07-3-.11-5.38-.11-7.11Q1.54,13.06,2.69,10A14.73,14.73,0,0,1,6.14,4Q10.4,0,18.77,0ZM12.11,39.9H13v2h-.89c-.09.24-.14.18-.11.06V40C12,39.91,12.11,39.9,12.11,39.9ZM23,39.9h.22s.42.41.42.62a3.24,3.24,0,0,0,.6-.62H24V40a1.61,1.61,0,0,1,.06,1.09A11.72,11.72,0,0,1,25,42V41.9h-.76l-.6-.43c-.21.4-.37.62-.49.43h-.53c.12,0,.38-.4.77-1l-.39-1Zm6.65,3A10.54,10.54,0,0,1,31,43.4v-.5h-.86l-.31,1h-.35c-.12-.47-.18-.41-.48-.32v.17c1.17.17,1,.57,1,.57v.28s.34.67-.17-.7h-.35c-.31,1.37-.55,1.2-.48.87v.13h.23a1,1,0,0,1,.49,0h.11a1,1,0,0,0,.24-.3c0-.07-.39-.27-1.19-.6l.12-.18V43.4C28.81,43.22,29.09,43.05,29.65,42.91Z"/></g></g></svg>