<svg xmlns="http://www.w3.org/2000/svg" viewBox="0 0 71 51"><title>cr</title><g id="Layer_2" data-name="Layer 2"><g id="Layer_1-2" data-name="Layer 1"><path d="M41,0H57.47q8.84,0,11.42,6.19A22.24,22.24,0,0,1,70,13.5v2.15Q70,23.09,66.73,27H63v2h6V41H66v2h5v7H61V39H56V32H49V44h2v7H41.18a.18.18,0,0,1-.18-.18V31h4V29H41Zm8.61,32H50c.23-.12.35.06.35.29.09,0,.2-.18.31-.29H51v-.13l-.3.74s.2.36,1.3.94V34H50.88a2.07,2.07,0,0,0-.49-1A6.5,6.5,0,0,0,50,34h-.42c.38-1,.57-1.3.57-1.39ZM50,34h1v.57l-.72.43H51v1H49v-.16L50.53,34ZM51,9V23h2.17q4.89,0,5.65-.93A3.47,3.47,0,0,0,60.06,20H64V18H61v.16A9.44,9.44,0,0,1,60.62,20H56V18h5c.11,0,.17-.05.17-.14,0-1.44.07-2.25.07-2.43q0-4.66-1.59-5.7A9.78,9.78,0,0,0,55.07,9Z"/><path d="M18.77.05q10.76,0,13.56,6.71A7,7,0,0,1,33.12,9H28v1h5v.56c-.39-.23-.5-.65-.71-1.56H41v1H33v.1a47.08,47.08,0,0,1,.8,6.09,85,85,0,0,1-8.8.66v.27Q25,9,19.14,9h-1q-4.39,0-5.35,3.53A31.66,31.66,0,0,0,12,20.34V27l-.07,1H8v2h3V43H25V30h8V43H29v7H19v1H12V50H5V47h5V45H3V39H0V32H1.65q-.1-4.51-.11-7.11,0-11.73,1.15-14.78A14.73,14.73,0,0,1,6.14,4Q10.4.06,18.77.05ZM12.11,40H13v2h-.89c-.09.24-.14.18-.11.06V40.08C12,40,12.11,40,12.11,40ZM23,40h.22s.42.41.42.62a3.24,3.24,0,0,0,.6-.62H24v.13a1.61,1.61,0,0,1,.06,1.09,11.72,11.72,0,0,1,.94.91V42h-.76l-.6-.43c-.21.4-.37.62-.49.43h-.53c.12,0,.38-.4.77-1L23,40Zm6.65,3a10.54,10.54,0,0,1,1.35.49V43h-.86l-.31,1h-.35c-.12-.47-.18-.41-.48-.32v.17c1.17.17,1,.57,1,.57v.28s.34.67-.17-.7h-.35c-.31,1.37-.55,1.2-.48.87V45h.23a1,1,0,0,1,.49,0h.11a1,1,0,0,0,.24-.3c0-.07-.39-.27-1.19-.6l.12-.17v-.43C28.81,43.27,29.09,43.1,29.65,43Z"/></g></g></svg>