<?xml version="1.0" standalone="no"?>
<!DOCTYPE svg PUBLIC "-//W3C//DTD SVG 20010904//EN"
 "http://www.w3.org/TR/2001/REC-SVG-20010904/DTD/svg10.dtd">
<svg version="1.0" xmlns="http://www.w3.org/2000/svg"
 width="1136.000000pt" height="1136.000000pt" viewBox="0 0 1136.000000 1136.000000"
 preserveAspectRatio="xMidYMid meet">
<metadata>
Created by potrace 1.14, written by Peter Selinger 2001-2017
</metadata>
<g transform="translate(0.000000,1136.000000) scale(0.100000,-0.100000)"
fill="#000000" stroke="none">
<path d="M6557 9745 c-4 -8 -2 -15 3 -15 6 0 6 -9 0 -25 -6 -15 -6 -26 0 -30
6 -4 7 -13 1 -24 -5 -9 -6 -23 -1 -30 4 -8 4 -27 0 -42 -5 -16 -5 -29 0 -29 5
0 5 -13 0 -30 -5 -18 -5 -30 0 -30 6 0 5 -11 0 -26 -7 -16 -7 -32 0 -43 5 -10
7 -21 4 -24 -8 -7 -11 -77 -4 -77 7 0 4 -66 -4 -79 -4 -5 -2 -12 4 -16 6 -4 7
-12 1 -24 -5 -9 -6 -23 -2 -30 5 -7 5 -30 1 -52 -4 -22 -3 -42 1 -45 5 -3 5
-13 0 -23 -6 -10 -6 -23 -1 -31 5 -8 5 -21 1 -29 -9 -16 -7 -49 3 -58 3 -3 1
-14 -4 -24 -7 -12 -7 -20 0 -24 7 -4 7 -12 0 -25 -6 -11 -6 -21 -1 -25 6 -3 6
-17 1 -35 -5 -18 -5 -30 0 -30 6 0 6 -10 0 -25 -6 -15 -6 -26 0 -30 6 -4 7
-13 1 -24 -5 -9 -6 -23 -1 -30 4 -8 4 -27 0 -42 -5 -16 -5 -29 0 -29 5 0 5
-13 0 -30 -5 -18 -5 -30 0 -30 5 0 6 -10 2 -22 -9 -25 -8 -60 1 -75 3 -5 2
-15 -3 -23 -4 -7 -4 -24 1 -37 5 -14 5 -23 -1 -23 -5 0 -7 -6 -4 -14 3 -8 -3
-16 -15 -19 -12 -3 -19 -2 -16 3 3 4 -11 4 -30 0 -19 -4 -35 -4 -35 1 0 5 -12
4 -27 -2 -30 -11 -30 -11 -54 1 -8 5 -21 5 -29 0 -7 -4 -23 -4 -36 0 -12 5
-25 6 -28 3 -7 -7 -105 -7 -112 0 -3 3 -16 2 -28 -3 -13 -4 -28 -5 -35 0 -7 4
-28 4 -47 0 -19 -4 -34 -4 -34 1 0 5 -11 4 -25 -1 -13 -5 -27 -5 -29 -1 -3 5
-24 5 -46 1 -22 -4 -40 -4 -40 1 0 4 -13 4 -30 -1 -17 -5 -32 -5 -35 0 -3 5
-16 5 -28 1 -12 -5 -34 -5 -49 0 -16 4 -28 4 -28 -1 0 -4 -16 -4 -35 0 -19 4
-35 5 -35 1 0 -7 -97 -4 -117 3 -7 3 -13 2 -13 -2 0 -4 -13 -7 -30 -7 -16 0
-30 3 -30 7 0 4 -11 4 -23 -1 -13 -5 -30 -5 -37 -1 -8 5 -21 5 -31 0 -9 -5
-19 -7 -21 -4 -3 2 -16 7 -28 9 -29 6 -28 4 -31 45 -2 19 -6 40 -9 45 -4 6
-12 30 -19 55 -13 51 -15 55 -66 165 -58 124 -106 217 -126 247 -11 14 -19 29
-19 33 0 4 -31 48 -69 98 -80 106 -186 215 -281 287 -18 14 -39 31 -46 38 -7
6 -16 12 -20 12 -4 0 -21 10 -38 23 -103 77 -297 168 -481 226 -139 44 -157
49 -185 55 -14 2 -47 10 -75 16 -27 6 -61 14 -75 16 -126 23 -188 32 -275 40
-27 3 -70 7 -95 11 -59 7 -742 13 -754 5 -5 -3 -34 -6 -65 -8 -31 -2 -78 -6
-106 -9 -27 -3 -66 -8 -85 -10 -41 -4 -105 -13 -140 -20 -14 -3 -36 -7 -50
-10 -14 -2 -38 -7 -55 -9 -16 -3 -40 -8 -52 -11 -13 -3 -32 -7 -43 -9 -22 -5
-209 -55 -225 -60 -5 -2 -13 -4 -18 -5 -4 0 -23 -7 -42 -15 -19 -8 -35 -12
-35 -9 0 3 -6 0 -14 -6 -8 -7 -22 -13 -32 -16 -11 -2 -37 -11 -59 -21 -22 -10
-42 -18 -45 -19 -3 -1 -18 -7 -33 -13 -16 -7 -33 -12 -38 -12 -5 0 -9 -4 -9
-10 0 -5 -3 -9 -7 -8 -16 4 -271 -137 -293 -162 -3 -3 -32 -23 -64 -45 -81
-55 -230 -203 -307 -305 -35 -47 -66 -87 -69 -90 -11 -11 -50 -70 -50 -75 0
-3 -8 -18 -19 -33 -31 -45 -55 -87 -50 -87 2 0 -6 -14 -19 -32 -12 -17 -22
-35 -22 -41 0 -5 -7 -15 -15 -22 -9 -7 -13 -15 -11 -18 3 -2 -6 -26 -19 -53
-32 -63 -82 -187 -107 -269 -11 -36 -25 -77 -30 -92 -6 -15 -10 -31 -10 -35
-1 -4 -9 -31 -19 -60 -9 -28 -15 -54 -12 -56 2 -3 0 -14 -5 -24 -5 -10 -13
-36 -16 -58 -3 -22 -8 -51 -11 -65 -2 -14 -6 -38 -9 -55 -2 -16 -7 -50 -11
-75 -4 -25 -8 -56 -10 -70 -1 -14 -6 -52 -10 -85 -4 -33 -9 -80 -10 -105 -2
-25 -4 -45 -5 -45 0 0 -3 -31 -5 -70 -3 -38 -7 -101 -10 -140 -38 -507 -48
-1530 -23 -2443 3 -101 -2 -136 -16 -113 -4 7 -15 7 -30 1 -13 -5 -27 -6 -30
-3 -7 8 -66 10 -66 3 0 -3 -16 -5 -35 -5 -19 0 -35 3 -35 6 0 3 -11 4 -25 1
l-25 -4 0 -559 0 -558 68 -1 c37 -1 78 -1 92 0 31 2 23 2 148 -1 56 -1 105 0
107 3 12 11 64 -5 64 -21 1 -19 1 -45 1 -68 0 -10 0 -42 0 -71 0 -30 -2 -58
-6 -63 -3 -5 -1 -9 5 -9 6 0 6 -11 1 -30 -5 -17 -5 -30 0 -30 5 0 5 -13 0 -30
-5 -17 -5 -30 0 -30 5 0 5 -12 1 -27 -4 -16 -5 -39 -1 -53 3 -14 3 -39 0 -55
-4 -17 -4 -39 0 -50 4 -11 4 -32 -1 -47 -4 -15 -4 -30 1 -33 5 -3 6 -15 0 -29
-4 -12 -4 -29 0 -36 5 -8 5 -21 0 -31 -5 -9 -7 -19 -3 -22 3 -4 5 -29 4 -57
-2 -57 -2 -75 0 -92 1 -7 0 -17 -1 -23 -11 -43 23 -69 72 -54 15 4 30 4 32 0
3 -4 30 -4 60 -1 31 3 56 3 56 -1 0 -4 14 -4 30 1 17 5 30 5 30 2 0 -9 64 -7
79 2 5 4 12 2 16 -4 4 -6 12 -7 24 -1 9 5 23 6 29 2 7 -4 35 -4 62 -1 28 4 50
3 50 -1 0 -4 14 -4 30 1 17 5 30 5 30 2 0 -9 64 -7 79 2 5 4 12 2 16 -4 4 -7
12 -7 24 0 10 5 21 7 24 4 8 -9 97 -10 97 -2 0 4 11 3 25 -2 15 -6 26 -6 30 1
4 5 13 6 21 1 9 -5 35 -6 60 -2 24 4 44 4 44 1 0 -3 13 -6 29 -6 16 0 27 3 25
7 -3 4 8 3 24 -3 27 -9 28 -12 23 -52 -4 -23 -4 -60 -1 -82 3 -22 2 -52 -1
-67 -4 -15 -4 -30 1 -33 4 -3 4 -20 0 -39 -4 -19 -6 -37 -3 -39 2 -3 -3 -7
-11 -10 -9 -4 -18 -2 -21 3 -3 6 -15 6 -29 0 -13 -5 -27 -6 -30 -3 -8 8 -102
7 -115 -1 -5 -4 -12 -2 -16 3 -4 7 -15 7 -30 1 -14 -5 -25 -6 -25 -1 0 4 -20
5 -45 1 -25 -4 -48 -3 -51 1 -2 5 -15 4 -28 -1 -13 -5 -27 -6 -30 -3 -8 9
-126 9 -126 1 0 -4 -10 -4 -22 1 -13 4 -34 5 -48 1 -14 -4 -34 -3 -46 1 -11 4
-27 4 -34 -1 -7 -5 -23 -4 -36 0 -14 6 -27 4 -37 -3 -17 -15 -30 -47 -17 -47
5 0 5 -13 0 -30 -5 -16 -5 -30 -1 -30 5 0 5 -18 1 -39 -4 -21 -3 -45 1 -53 4
-8 4 -20 -1 -28 -4 -7 -4 -24 1 -37 5 -12 5 -23 1 -23 -9 0 -7 -164 2 -178 6
-10 65 -15 131 -12 17 1 37 2 45 1 32 -1 98 -2 106 0 5 1 11 1 14 0 18 -7 290
-4 290 2 0 5 4 6 8 3 8 -4 106 -8 152 -5 8 1 47 1 85 0 75 -1 89 -1 178 -4 31
-1 57 1 57 4 0 3 11 4 26 1 18 -3 25 -10 23 -26 0 -11 -1 -47 0 -78 l1 -58
559 0 559 0 4 25 c3 14 2 25 -3 25 -4 0 -4 13 1 29 5 17 4 31 -1 33 -4 2 -3
14 4 28 11 21 18 24 52 21 81 -7 215 -6 215 2 0 5 4 6 8 3 5 -3 40 -5 78 -5
72 -1 83 -1 177 -4 31 -1 57 2 57 6 0 5 4 6 8 3 10 -6 104 -8 220 -4 45 2 82
-1 82 -5 0 -5 4 -6 8 -3 10 6 58 7 310 6 105 -1 197 2 202 5 6 3 10 3 10 -2 0
-4 23 -8 50 -8 28 0 50 2 50 5 0 4 15 4 34 2 38 -4 48 12 35 60 -4 15 -3 30 2
33 5 4 5 14 -1 25 -6 12 -7 21 0 25 6 4 6 15 0 30 -6 15 -6 25 0 25 5 0 5 12
0 28 -4 16 -4 35 1 43 4 8 4 21 -1 28 -4 8 -4 27 0 42 5 16 5 29 0 29 -5 0 -5
13 0 30 5 18 5 30 0 30 -6 0 -5 11 0 26 6 15 6 32 1 42 -6 11 -6 24 0 34 6 11
6 19 -1 23 -7 4 -7 12 0 25 7 13 7 21 0 25 -6 4 -7 12 -1 23 5 9 5 26 0 39 -5
14 -5 23 1 23 6 0 6 9 0 25 -6 16 -6 25 0 25 5 0 7 6 4 14 -3 8 0 24 6 36 7
13 8 20 2 16 -13 -8 -22 27 -11 46 4 7 4 20 0 27 -5 7 -6 22 -4 32 4 15 11 18
27 13 35 -10 39 -20 25 -61 -20 -60 -21 -59 35 -59 62 1 97 22 85 51 -4 11 -8
17 -8 13 -1 -10 -101 41 -101 52 0 5 5 12 10 15 6 4 8 10 5 15 -3 4 2 10 10
14 8 3 15 2 15 -3 0 -5 9 -11 21 -14 12 -3 19 -3 16 0 -3 2 0 24 8 48 7 24 10
46 7 49 -3 4 0 6 6 6 7 0 12 13 12 29 0 23 -5 31 -22 34 -20 4 -19 4 5 6 18 1
27 -4 27 -14 0 -8 6 -15 13 -15 6 0 38 -11 69 -24 54 -22 57 -22 61 -5 3 11 1
19 -3 19 -4 0 -6 9 -3 20 3 12 8 19 10 16 3 -3 16 -1 29 4 13 5 24 6 24 2 0
-7 109 -6 143 2 9 2 17 0 17 -4 0 -5 14 -5 30 0 17 5 30 5 30 0 0 -4 8 -6 18
-3 19 4 22 12 22 58 0 39 0 52 0 98 1 23 1 58 1 77 -1 34 -1 54 -1 85 0 8 0
22 0 30 0 8 0 22 0 30 0 28 0 50 0 100 1 28 0 59 0 70 -1 11 -1 27 -1 35 3 90
2 130 -3 139 -4 5 -2 12 3 15 6 4 6 18 1 36 -5 17 -5 32 0 35 5 3 6 15 0 29
-4 12 -4 29 0 36 5 8 6 18 3 24 -3 5 -5 32 -4 60 1 28 1 60 1 71 -1 11 -1 26
-1 33 1 28 2 99 2 132 -1 34 -1 54 -1 85 0 8 0 22 0 30 0 8 0 22 0 30 0 28 0
50 0 100 1 28 0 59 0 70 -1 11 -1 27 -1 35 3 90 2 130 -3 139 -4 5 -2 12 3 15
6 4 6 18 1 36 -5 17 -5 32 0 35 5 3 6 15 0 29 -4 12 -4 29 0 36 5 8 6 18 3 23
-7 11 -8 106 -1 113 3 3 2 21 -2 40 -4 18 -4 34 0 34 5 0 6 9 3 21 -3 11 -11
18 -19 15 -7 -3 -16 -1 -19 4 -3 5 -15 6 -29 0 -12 -4 -28 -5 -35 -1 -7 5 -29
5 -50 1 -21 -4 -47 -3 -59 1 -12 5 -24 4 -27 -1 -4 -6 -13 -7 -24 -1 -9 5 -23
6 -31 1 -7 -4 -18 -6 -24 -4 -20 8 -106 10 -106 3 0 -4 -13 -4 -30 1 -17 5
-30 5 -30 0 0 -5 -13 -5 -30 0 -17 5 -30 5 -30 0 0 -5 -6 -7 -12 -5 -22 9
-108 11 -108 4 0 -4 -13 -4 -30 1 -17 5 -30 5 -30 0 0 -5 -13 -5 -30 0 -17 5
-30 5 -30 0 0 -5 -6 -7 -12 -5 -22 9 -108 11 -108 4 0 -4 -13 -4 -30 1 -17 5
-30 5 -30 0 0 -5 -13 -5 -30 0 -17 5 -30 5 -30 0 0 -5 -6 -7 -12 -5 -22 9
-108 11 -108 4 0 -4 -13 -4 -30 1 -17 5 -30 5 -30 0 0 -5 -12 -5 -27 -1 -36
10 -65 1 -54 -17 4 -7 5 -31 1 -53 -4 -22 -4 -41 0 -44 4 -3 4 -22 1 -42 -4
-21 -4 -49 -1 -63 3 -13 3 -43 0 -65 -3 -22 -3 -59 1 -82 3 -24 4 -45 1 -48
-3 -3 -4 -35 -3 -72 2 -78 2 -73 1 -156 -1 -35 0 -67 1 -73 1 -5 0 -13 -1 -19
-1 -5 -1 -39 0 -75 1 -77 1 -73 0 -153 -1 -35 0 -67 1 -73 1 -5 0 -13 -1 -19
-2 -11 -1 -104 3 -218 1 -42 0 -77 -3 -77 -5 0 -5 -79 0 -150 1 -19 1 -38 0
-42 -1 -9 -2 -126 0 -130 4 -10 4 -158 0 -158 -7 0 -3 -218 4 -237 4 -9 1 -13
-6 -10 -7 2 -21 0 -30 -4 -10 -6 -19 -5 -23 1 -3 6 -15 6 -30 0 -15 -6 -27 -6
-30 0 -4 7 -13 6 -26 0 -12 -7 -25 -7 -37 -1 -10 5 -24 6 -32 1 -7 -4 -24 -4
-37 1 -14 5 -23 5 -23 -1 0 -6 -9 -6 -23 -1 -13 5 -30 5 -37 1 -8 -5 -22 -4
-31 1 -12 6 -20 5 -24 -1 -5 -7 -11 -8 -19 -1 -7 6 -17 6 -26 1 -8 -5 -21 -5
-32 1 -12 7 -18 6 -18 -1 0 -7 -6 -8 -19 -1 -10 6 -21 8 -24 5 -7 -8 -77 -11
-77 -4 0 7 -69 4 -76 -3 -4 -4 -15 -2 -25 3 -12 7 -20 7 -24 0 -4 -6 -13 -7
-22 -2 -8 5 -32 6 -53 2 -21 -4 -44 -4 -51 1 -7 4 -21 3 -30 -2 -11 -6 -20 -5
-24 1 -4 6 -12 7 -22 1 -9 -5 -29 -5 -45 -1 -15 5 -28 5 -28 0 0 -5 -13 -5
-29 0 -15 4 -34 4 -42 0 -7 -5 -18 -6 -23 -2 -13 7 -113 5 -126 -3 -6 -3 -10
-2 -10 4 0 7 -8 7 -26 1 -15 -6 -32 -6 -42 -1 -11 6 -24 6 -34 0 -11 -6 -19
-6 -23 1 -4 6 -13 7 -24 1 -9 -5 -23 -6 -31 -1 -7 4 -24 4 -37 -1 -14 -5 -23
-5 -23 1 0 6 -9 6 -25 0 -15 -6 -26 -6 -30 0 -4 6 -13 7 -24 1 -9 -5 -23 -6
-30 -1 -8 4 -27 4 -42 0 -16 -5 -29 -5 -29 0 0 5 -13 5 -30 0 -18 -5 -30 -5
-30 0 0 5 -10 6 -22 2 -26 -9 -75 -8 -84 1 -4 4 -15 2 -25 -3 -12 -7 -20 -7
-24 0 -4 6 -11 8 -16 4 -15 -9 -79 -11 -79 -2 0 3 -13 3 -30 -2 -16 -5 -30 -5
-30 0 0 4 -15 4 -34 0 -19 -4 -40 -4 -47 1 -7 4 -17 5 -22 2 -13 -8 -77 -9
-77 -2 0 4 -8 6 -17 5 -13 -1 -19 7 -21 29 -3 40 -3 39 -2 125 0 41 0 107 0
145 -1 39 -1 75 0 80 1 6 1 66 0 135 -1 119 -1 134 1 163 1 6 1 53 0 102 -1
50 -1 135 -2 190 0 55 0 105 0 110 -1 6 0 33 0 60 1 28 1 84 1 125 -1 134 0
424 1 480 0 30 0 61 0 68 -2 53 -2 179 -1 187 8 35 -2 66 -23 74 -12 5 -26 5
-31 1 -4 -4 -21 -4 -37 0 -16 5 -29 5 -29 0 0 -5 -13 -5 -30 0 -17 5 -30 5
-30 0 0 -5 -13 -5 -30 0 -18 5 -30 5 -30 0 0 -6 -10 -6 -25 0 -15 6 -27 6 -30
0 -3 -5 -11 -7 -18 -4 -19 7 -107 10 -107 4 0 -4 -13 -5 -29 -2 -22 3 -29 9
-26 23 2 10 0 21 -5 24 -5 3 -6 15 0 29 4 12 4 29 0 36 -5 8 -5 21 0 30 5 9 5
22 0 30 -5 8 -5 21 0 30 5 9 5 22 0 30 -5 8 -5 21 0 30 5 9 4 23 -1 33 -6 9
-9 17 -7 18 32 8 56 10 101 9 20 -1 80 -1 102 0 28 0 45 0 68 0 12 0 33 1 47
3 14 2 37 0 52 -4 15 -4 30 -4 33 1 3 5 19 5 35 0 17 -5 32 -5 35 0 3 5 16 5
28 1 12 -5 34 -5 49 0 16 4 28 4 28 0 0 -4 13 -6 30 -3 24 3 30 9 31 31 1 14
3 62 5 106 2 44 4 134 3 200 0 66 0 127 0 135 2 47 -1 115 -5 121 -2 4 -1 10
4 13 4 3 5 30 2 61 -3 31 -3 58 0 60 3 2 3 29 0 60 -3 31 -3 58 0 60 3 2 3 29
0 60 -3 31 -3 58 0 60 3 2 3 29 0 60 -3 31 -3 58 0 60 3 2 4 28 0 57 -3 29 -3
72 1 96 3 23 3 42 0 42 -7 0 -6 56 4 275 9 213 13 265 36 437 16 126 23 174
35 232 10 51 16 83 19 106 2 14 10 52 19 86 8 34 17 72 19 85 3 14 13 42 23
64 9 22 18 42 18 45 7 41 167 250 191 250 3 0 15 8 26 19 11 10 37 27 57 37
20 10 44 24 52 30 12 9 79 34 135 51 58 17 169 34 254 38 57 3 107 8 111 10 5
3 11 1 15 -4 3 -7 15 -7 29 -1 13 5 27 6 30 3 9 -9 76 -9 76 0 0 5 5 5 10 2 6
-3 41 -8 80 -11 58 -3 131 -16 221 -38 45 -11 171 -78 225 -119 165 -125 267
-300 333 -571 38 -152 48 -233 55 -408 2 -53 6 -101 10 -106 3 -5 31 -8 63 -6
32 2 126 5 208 8 83 3 177 8 210 10 33 3 105 8 160 12 216 14 237 16 365 29
41 5 92 9 112 9 21 1 38 3 38 6 0 3 15 5 33 6 28 1 112 10 172 19 11 1 25 3
31 4 12 1 12 18 -1 150 -4 41 -8 92 -10 115 -4 45 -12 122 -19 176 -11 81 -18
136 -21 150 -1 8 -6 40 -10 70 -4 30 -9 64 -11 75 -2 11 -6 34 -9 50 -3 17
-10 53 -15 80 -18 94 -21 123 -11 129 5 4 12 2 15 -3 3 -5 21 -5 41 -1 19 4
35 5 35 1 0 -5 78 -6 105 -1 6 2 12 2 15 0 15 -5 80 -4 80 2 0 4 13 3 30 -2
18 -5 32 -5 36 1 3 5 10 7 15 3 9 -5 83 -8 104 -4 6 1 15 1 20 0 25 -5 95 -3
101 2 3 4 16 3 28 -2 12 -4 29 -4 37 0 8 5 21 5 29 0 7 -4 24 -4 36 0 14 6 26
5 29 0 3 -5 18 -5 35 0 17 5 30 6 30 2 0 -4 16 -7 35 -7 19 0 35 3 35 7 0 4
12 3 28 -1 15 -5 36 -5 47 -1 11 4 24 5 29 2 6 -3 28 -5 50 -4 23 1 58 2 79 3
21 1 40 -1 44 -4 3 -3 16 -2 29 3 14 6 26 6 29 0 4 -6 14 -6 27 1 18 10 20 9
16 -8 -3 -11 -1 -27 3 -36 6 -9 5 -18 0 -22 -7 -4 -7 -15 -1 -30 5 -14 6 -25
2 -25 -9 0 -7 -58 2 -67 3 -3 1 -14 -4 -24 -7 -12 -7 -20 0 -24 7 -4 7 -12 0
-25 -6 -11 -6 -21 -1 -25 6 -3 6 -17 1 -35 -5 -18 -5 -30 0 -30 6 0 6 -10 0
-25 -6 -15 -6 -26 0 -30 6 -4 7 -13 1 -24 -5 -9 -6 -23 -1 -30 4 -8 4 -27 0
-42 -5 -16 -5 -29 0 -29 5 0 5 -13 0 -30 -5 -18 -5 -30 0 -30 5 0 6 -10 2 -22
-9 -26 -8 -75 1 -84 4 -4 2 -15 -3 -25 -7 -12 -7 -20 0 -24 6 -4 8 -11 4 -16
-9 -16 -10 -79 -1 -79 4 0 5 -5 2 -10 -8 -13 -9 -159 -2 -167 4 -3 2 -14 -3
-24 -7 -12 -7 -20 0 -24 6 -4 8 -11 4 -16 -9 -16 -10 -79 -1 -79 4 0 5 -5 2
-10 -8 -13 -9 -159 -2 -167 4 -3 2 -14 -3 -24 -7 -12 -7 -20 0 -24 6 -4 8 -11
4 -16 -9 -16 -10 -79 -1 -79 4 0 5 -5 2 -10 -8 -13 -9 -159 -2 -167 4 -3 2
-14 -3 -24 -7 -12 -7 -20 0 -24 6 -4 8 -11 4 -16 -9 -16 -10 -79 -1 -79 4 0 5
-5 2 -10 -8 -13 -9 -159 -2 -167 4 -3 2 -14 -3 -24 -7 -12 -7 -20 0 -24 6 -4
8 -11 4 -16 -9 -16 -10 -79 -1 -79 4 0 5 -5 2 -10 -8 -13 -9 -159 -2 -167 4
-3 2 -14 -3 -24 -7 -12 -7 -20 0 -24 6 -4 8 -11 4 -16 -9 -16 -10 -79 -1 -79
4 0 5 -5 2 -10 -8 -13 -9 -159 -2 -167 4 -3 2 -14 -3 -24 -7 -12 -7 -20 0 -24
6 -4 8 -11 4 -16 -9 -16 -10 -79 -1 -79 4 0 5 -5 2 -10 -8 -13 -10 -159 -2
-166 3 -3 2 -18 -3 -32 -14 -49 12 -83 55 -72 6 1 16 2 23 1 13 -1 25 -1 95 0
27 0 51 -2 54 -4 2 -3 18 -1 34 3 16 5 29 5 29 0 0 -5 13 -5 29 0 15 4 34 4
42 0 7 -5 20 -5 30 0 9 5 19 7 22 4 8 -8 106 -9 113 -1 3 3 19 1 35 -3 17 -5
29 -5 29 0 0 5 10 6 22 1 23 -8 44 -66 28 -76 -5 -3 -5 -17 -1 -32 4 -15 4
-46 1 -69 -4 -24 -3 -49 1 -56 4 -8 4 -20 -1 -28 -4 -7 -4 -23 0 -36 8 -20 5
-22 -26 -26 -19 -2 -34 -2 -34 2 0 7 -289 5 -296 -3 -3 -3 -16 -2 -28 3 -12 4
-29 4 -38 -1 -10 -6 -19 -6 -22 0 -3 5 -21 5 -41 1 -19 -4 -37 -5 -39 -1 -2 3
-19 5 -38 4 -18 -1 -46 -2 -63 -3 -16 -1 -25 -4 -18 -6 8 -4 9 -14 3 -35 -5
-17 -5 -29 0 -29 6 0 6 -10 0 -25 -5 -14 -5 -27 0 -30 5 -3 5 -18 0 -35 -5
-18 -5 -30 0 -30 6 0 6 -10 0 -25 -6 -15 -6 -26 0 -30 6 -4 7 -13 1 -24 -5 -9
-6 -23 -1 -30 4 -8 4 -27 0 -42 -5 -16 -5 -29 0 -29 5 0 5 -13 0 -30 -5 -18
-5 -30 0 -30 6 0 5 -11 0 -26 -7 -16 -7 -32 0 -43 5 -10 7 -21 4 -24 -8 -7
-11 -77 -4 -77 7 0 4 -66 -4 -79 -4 -5 -2 -12 4 -16 6 -4 7 -12 1 -24 -5 -9
-6 -23 -2 -30 5 -7 5 -30 1 -52 -4 -22 -3 -42 1 -45 5 -3 5 -13 0 -23 -6 -10
-6 -23 -1 -31 5 -8 5 -21 1 -29 -9 -16 -7 -49 3 -58 3 -3 1 -14 -4 -24 -7 -12
-7 -20 0 -24 7 -4 7 -12 0 -25 -6 -11 -6 -21 -1 -25 6 -3 6 -17 1 -35 -5 -18
-5 -30 0 -30 6 0 6 -10 0 -25 -6 -15 -6 -26 0 -30 6 -4 7 -13 1 -24 -5 -9 -6
-23 -1 -30 4 -8 4 -27 0 -42 -5 -16 -5 -29 0 -29 5 0 5 -13 0 -30 -5 -18 -5
-30 0 -30 6 0 5 -11 0 -26 -7 -16 -7 -32 0 -43 5 -10 7 -21 4 -24 -8 -7 -11
-77 -4 -77 7 0 4 -66 -4 -79 -4 -5 -2 -12 4 -16 6 -4 7 -12 1 -24 -5 -9 -6
-23 -2 -30 5 -7 5 -30 1 -52 -4 -22 -3 -42 1 -45 5 -3 5 -13 0 -23 -6 -10 -6
-23 -1 -31 5 -8 5 -21 1 -29 -9 -16 -7 -49 3 -58 3 -3 1 -14 -4 -24 -7 -12 -7
-20 0 -24 7 -4 7 -12 0 -25 -6 -11 -6 -21 -1 -25 6 -3 6 -17 1 -35 -5 -18 -5
-30 0 -30 6 0 6 -10 0 -25 -6 -15 -6 -26 0 -30 6 -4 7 -13 1 -24 -5 -9 -6 -23
-1 -30 4 -8 4 -27 0 -42 -5 -16 -5 -29 0 -29 5 0 5 -13 0 -30 -5 -18 -5 -30 0
-30 5 0 6 -10 2 -22 -9 -26 -8 -75 1 -84 4 -4 2 -15 -3 -25 -7 -12 -7 -20 0
-24 6 -4 8 -11 4 -16 -9 -16 -10 -79 -1 -79 4 0 5 -5 2 -10 -8 -13 -9 -159 -2
-167 4 -3 2 -14 -3 -24 -7 -12 -7 -20 0 -24 6 -4 8 -11 4 -16 -9 -16 -10 -79
-1 -79 4 0 5 -5 2 -10 -8 -13 -9 -159 -2 -167 4 -3 2 -14 -3 -24 -7 -12 -7
-20 0 -24 6 -4 8 -10 5 -15 -3 -4 -2 -15 1 -24 6 -14 83 -16 799 -16 784 0
793 0 798 20 3 11 1 20 -3 20 -5 0 -5 14 0 30 5 17 5 30 1 30 -4 0 -4 27 -1
60 3 33 3 60 -1 60 -4 0 -4 14 1 30 5 17 6 30 2 30 -4 0 -7 16 -7 35 0 19 2
35 5 35 3 0 4 19 2 42 -2 24 -2 61 -2 83 5 144 4 235 -2 235 -4 0 -3 14 2 30
5 17 5 30 0 30 -4 0 -4 16 0 35 4 19 4 35 0 35 -5 0 -5 14 0 30 5 17 6 30 2
30 -4 0 -7 23 -7 50 0 28 3 50 7 50 4 0 3 13 -2 30 -5 17 -5 32 0 35 15 9 -5
48 -28 56 -12 5 -22 4 -22 -1 0 -5 -12 -5 -27 -1 -16 4 -41 4 -58 1 -16 -4
-40 -3 -52 1 -12 5 -25 4 -28 -1 -3 -6 -15 -6 -30 0 -16 6 -25 5 -29 -3 -3 -9
-5 -9 -5 0 -1 6 -10 9 -20 6 -16 -4 -19 2 -22 46 -2 28 -2 51 1 51 3 0 4 26 2
57 -5 105 -3 223 3 233 3 6 2 10 -4 10 -6 0 -8 6 -5 13 6 17 10 157 4 157 -3
0 -3 32 0 70 3 39 3 70 0 70 -6 0 -3 117 3 134 3 7 2 18 -3 25 -4 7 -4 28 0
47 4 19 4 36 0 39 -4 2 -4 23 0 45 4 22 4 40 -1 40 -5 0 -6 6 -3 13 7 19 10
157 3 157 -3 0 -3 17 1 38 3 20 11 36 18 35 6 -2 31 -3 54 -3 138 1 191 -1
199 -6 5 -3 9 -1 9 4 0 6 8 8 19 5 21 -5 34 26 20 48 -4 7 -4 20 1 29 5 9 5
22 0 30 -5 9 -5 19 1 26 7 9 4 16 -12 24 -17 9 -20 9 -14 0 6 -10 3 -10 -11
-2 -11 6 -27 7 -41 1 -18 -7 -23 -5 -23 7 0 8 5 12 10 9 6 -3 10 -2 10 4 0 5
10 13 22 17 36 11 60 40 58 71 -1 15 -2 33 -1 39 1 13 41 26 41 14 0 -5 14 -5
30 0 17 5 30 5 30 1 0 -13 58 0 64 15 3 8 2 14 -3 14 -4 0 -7 10 -7 21 1 12
-8 26 -19 33 -11 6 -23 16 -27 21 -5 7 -8 7 -8 0 0 -7 -3 -7 -8 0 -4 6 -25 22
-47 36 -22 15 -52 38 -66 53 l-27 26 21 55 c14 40 23 52 32 45 7 -6 15 -6 22
1 8 8 13 8 17 0 4 -7 15 -7 30 -1 13 5 26 6 29 3 8 -8 243 -7 255 1 6 3 13 2
17 -4 4 -7 12 -7 25 0 12 6 21 7 25 0 3 -5 15 -6 28 -1 12 5 32 5 44 0 13 -5
25 -4 28 1 3 6 15 6 30 0 15 -6 27 -6 30 1 4 5 11 7 16 3 16 -9 79 -10 79 -1
0 4 5 5 11 1 6 -3 34 -6 61 -5 35 0 48 -3 45 -12 -2 -6 0 -20 4 -29 5 -10 5
-19 0 -22 -5 -3 -5 -21 -1 -40 4 -19 4 -40 -1 -47 -4 -7 -4 -20 1 -29 5 -9 5
-22 0 -30 -5 -8 -5 -21 0 -30 5 -9 5 -22 0 -30 -5 -8 -5 -21 0 -30 5 -9 5 -22
0 -30 -5 -8 -5 -21 0 -30 5 -9 5 -22 0 -30 -5 -8 -5 -21 0 -30 5 -9 5 -22 0
-30 -5 -8 -5 -21 0 -30 5 -9 5 -22 0 -30 -5 -8 -5 -21 0 -30 5 -9 5 -22 0 -30
-5 -8 -5 -21 0 -30 5 -9 5 -22 0 -30 -5 -8 -5 -21 0 -30 5 -9 5 -22 0 -30 -5
-8 -5 -21 0 -30 5 -9 5 -22 0 -30 -5 -8 -5 -21 0 -30 5 -9 5 -22 0 -30 -5 -8
-5 -21 0 -30 4 -8 4 -22 0 -31 -5 -8 -5 -21 -1 -28 5 -7 5 -29 1 -49 -3 -20
-3 -48 0 -62 4 -14 3 -32 -1 -41 -4 -8 -4 -21 1 -29 4 -7 6 -19 3 -27 -4 -9 5
-13 28 -14 19 -1 39 0 44 1 6 1 46 1 90 1 44 -1 103 -1 130 0 28 0 55 0 60 0
6 0 55 0 110 0 55 -1 136 -1 180 -1 44 -1 94 -1 112 0 38 1 42 -5 43 -56 1
-64 2 -268 1 -281 -2 -25 -2 -38 -2 -68 1 -16 1 -39 1 -50 0 -11 0 -33 -1 -50
0 -16 0 -37 1 -45 1 -28 0 -55 -3 -74 -2 -11 -1 -37 3 -58 4 -21 4 -41 0 -43
-4 -3 -4 -20 0 -39 4 -19 6 -37 3 -40 -3 -2 -4 -40 -3 -83 1 -43 1 -84 1 -90
-2 -26 -2 -39 -2 -68 1 -38 1 -62 0 -100 0 -16 0 -37 1 -45 1 -28 0 -55 -3
-74 -2 -11 -1 -37 3 -58 4 -21 4 -41 0 -43 -4 -3 -5 -20 -1 -37 4 -18 4 -49 1
-68 -3 -19 -3 -61 0 -93 3 -32 3 -63 -1 -69 -4 -6 -3 -22 1 -37 4 -14 4 -36 0
-47 -14 -36 2 -45 74 -44 22 0 50 0 61 0 11 0 40 1 65 1 25 0 51 0 58 0 6 0
33 0 60 0 26 0 56 0 67 -1 11 -1 25 -1 30 -1 6 0 39 0 75 0 36 0 76 1 90 1 14
1 32 1 40 1 8 0 35 0 60 0 25 0 52 0 60 0 45 -3 103 0 111 5 5 3 9 2 9 -3 0
-4 26 -7 57 -5 32 2 72 2 88 2 125 -5 225 -4 225 3 0 5 4 6 8 3 8 -4 106 -8
152 -5 13 1 61 1 183 -1 l27 0 0 560 0 560 -22 1 c-13 1 -27 1 -31 0 -4 -1
-18 -1 -30 -1 -12 0 -33 0 -47 0 -14 -1 -31 -1 -37 -1 -30 2 -40 2 -75 -1 -21
-2 -38 -1 -38 2 0 7 -69 4 -76 -3 -4 -4 -15 -2 -25 3 -12 7 -20 7 -24 0 -4 -6
-13 -7 -22 -2 -8 5 -32 6 -53 2 -21 -4 -44 -4 -51 1 -7 4 -21 3 -30 -2 -12 -6
-20 -5 -24 1 -4 6 -11 8 -16 4 -13 -8 -79 -11 -79 -4 0 7 -64 6 -70 -1 -10
-13 -52 11 -46 26 3 8 1 15 -4 15 -5 0 -5 13 0 30 5 19 5 30 -1 30 -6 0 -8 4
-5 8 6 10 8 83 4 135 -2 20 0 37 3 37 4 0 5 8 2 19 -5 20 17 34 36 22 7 -5 30
-5 52 -1 21 4 39 4 39 -1 0 -4 12 -4 28 0 15 5 36 5 47 1 11 -4 27 -4 36 1 9
5 19 6 22 2 6 -5 35 -5 125 0 23 1 42 -1 42 -4 0 -3 10 -4 23 -2 22 4 31 28
28 73 -2 18 0 58 3 85 1 11 -1 37 -5 58 -3 20 -3 40 2 42 4 3 4 19 -1 35 -5
16 -5 32 0 35 5 3 5 18 1 33 -5 15 -5 36 -1 47 4 11 4 32 -1 47 -4 15 -4 30 0
33 5 2 5 23 1 45 -4 22 -4 43 1 45 4 3 4 19 -1 35 -5 16 -5 32 0 35 5 3 5 18
1 33 -5 15 -5 36 -1 47 4 11 4 31 0 45 -4 14 -5 34 -4 45 2 11 4 30 4 42 0 39
2 77 4 98 1 11 -1 37 -5 58 -3 20 -4 37 0 37 3 0 5 24 4 52 -1 29 -3 64 -3 78
0 14 -1 39 -1 55 -2 36 -1 60 0 97 1 16 1 40 2 55 0 16 1 37 3 48 1 11 -1 37
-5 58 -3 20 -3 40 2 42 4 3 4 19 -1 35 -5 16 -5 32 0 35 5 3 5 18 1 33 -5 15
-5 36 -1 47 4 11 4 32 -1 47 -4 15 -4 30 0 33 5 2 5 23 1 45 -4 22 -4 40 0 40
4 0 5 14 1 31 -6 32 -44 58 -56 39 -3 -6 -15 -6 -29 0 -13 5 -26 6 -29 3 -8
-7 -96 -8 -103 0 -3 3 -17 2 -30 -3 -13 -5 -26 -6 -29 0 -3 5 -18 5 -35 0 -16
-5 -32 -5 -35 0 -3 5 -18 5 -34 0 -16 -4 -32 -6 -35 -3 -7 8 -116 9 -116 1 0
-4 -13 -3 -29 2 -16 4 -32 6 -35 3 -7 -8 -95 -7 -102 0 -3 3 -17 2 -30 -3 -13
-5 -26 -5 -28 -1 -3 5 -24 5 -46 1 -22 -4 -40 -4 -40 1 0 4 -13 4 -30 -1 -16
-5 -30 -5 -30 -1 0 4 -12 7 -27 6 -21 0 -28 5 -27 18 1 9 -2 17 -6 17 -5 0 -5
14 0 30 5 17 5 30 0 30 -4 0 -4 15 0 34 4 19 4 40 -1 47 -4 7 -4 20 1 29 6 11
5 21 -1 27 -8 8 -8 13 0 17 7 5 7 15 1 32 -13 33 -7 34 128 31 61 -1 112 1
112 4 0 4 17 3 38 0 20 -4 48 -5 62 -4 14 2 39 3 55 2 17 0 39 0 50 1 39 3 60
3 85 0 60 -6 68 -1 129 80 128 169 235 385 311 625 29 93 66 236 76 295 3 14
9 48 14 75 5 28 12 75 16 105 3 30 7 57 9 60 2 3 6 41 10 85 4 44 9 94 11 110
1 17 5 110 8 208 3 98 8 182 11 187 3 6 1 10 -5 10 -6 0 -9 4 -6 8 4 7 7 68 6
137 -1 46 -1 131 -1 145 1 8 0 38 0 65 -1 28 0 59 1 70 2 26 2 25 -4 125 -9
162 -26 319 -41 390 -3 14 -8 42 -10 63 -2 21 -11 66 -19 100 -8 34 -17 73
-19 87 -3 14 -12 52 -21 84 -9 33 -18 67 -20 75 -2 9 -5 23 -8 31 -53 148 -74
200 -80 200 -4 0 -8 6 -8 14 0 15 -79 155 -117 205 -38 52 -124 152 -163 191
-59 58 -175 150 -189 150 -6 0 -11 5 -11 10 0 6 -8 13 -17 17 -10 3 -29 14
-43 23 -93 64 -290 149 -440 191 -25 7 -47 13 -50 14 -3 1 -23 5 -45 10 -56
13 -55 12 -57 14 -2 1 -19 4 -38 7 -19 2 -46 7 -60 10 -29 8 -45 11 -120 18
-30 3 -71 9 -90 12 -19 4 -695 9 -1501 11 -1318 4 -1467 2 -1472 -12z m-1982
-1425 c3 5 15 6 28 1 12 -5 34 -5 49 0 16 4 28 4 28 -1 0 -4 15 -5 33 -1 17 4
43 4 57 1 14 -4 37 -3 52 1 15 4 30 4 33 -1 3 -5 16 -5 30 0 13 5 27 5 29 1 3
-5 20 -5 38 -2 18 4 48 4 66 0 18 -4 32 -3 32 3 0 5 5 6 11 2 6 -3 33 -6 59
-5 47 1 48 0 56 -37 8 -42 9 -45 23 -89 6 -20 6 -35 0 -38 -5 -4 -9 -2 -9 2 0
5 -29 6 -65 3 -36 -3 -65 -2 -65 1 0 4 -16 3 -35 -1 -19 -4 -37 -4 -40 0 -2 4
-19 5 -37 3 -34 -5 -38 -5 -73 -3 -11 0 -82 0 -158 -2 -75 -2 -137 0 -137 3 0
4 -16 3 -35 -1 -47 -11 -69 7 -67 54 1 20 4 41 7 46 3 5 1 11 -4 14 -5 3 -7
15 -4 27 4 14 12 19 24 16 11 -3 19 -1 19 4 0 5 11 4 25 -1 15 -6 27 -6 30 0z
m3671 0 c13 6 24 6 24 1 0 -5 16 -5 35 -1 19 4 37 4 40 0 3 -5 18 -5 33 -1 15
4 41 4 57 1 17 -3 46 -3 65 0 19 3 50 3 68 -1 17 -3 32 -4 32 0 0 6 24 5 118
-1 23 -2 42 -1 42 2 0 6 276 4 352 -4 90 -9 201 -34 322 -74 100 -32 116 -41
161 -86 52 -53 83 -105 116 -191 18 -49 47 -164 55 -215 2 -14 6 -41 8 -60 13
-84 20 -216 20 -360 -1 -280 -6 -435 -16 -446 -6 -8 1 -10 24 -5 18 4 48 4 66
0 17 -4 32 -4 32 0 0 3 29 6 65 6 36 0 65 -3 65 -7 0 -4 11 -3 25 2 15 6 27 6
30 0 3 -6 15 -6 30 0 15 6 27 6 30 0 3 -6 15 -6 30 0 15 6 27 6 30 0 3 -5 12
-7 19 -4 17 6 31 -12 16 -21 -7 -4 -7 -12 0 -25 6 -12 7 -21 0 -25 -6 -3 -6
-15 0 -29 5 -13 6 -27 3 -30 -8 -8 -9 -76 -1 -76 4 0 3 -13 -2 -30 -5 -16 -5
-30 0 -30 4 0 6 -9 3 -21 -6 -23 -43 -41 -58 -28 -6 4 -17 4 -25 -1 -8 -5 -21
-5 -31 1 -11 6 -20 5 -24 -1 -3 -6 -15 -6 -29 0 -13 5 -27 6 -30 3 -9 -9 -166
-9 -166 0 0 4 -8 4 -17 -1 -10 -5 -27 -6 -38 -2 -11 4 -30 4 -42 -1 -15 -5
-23 -5 -23 2 0 6 -6 6 -18 0 -30 -16 -43 0 -31 40 11 36 16 59 24 99 3 14 7
36 10 50 11 53 16 132 8 127 -5 -3 -15 -2 -23 3 -8 5 -21 5 -31 -1 -11 -6 -20
-5 -24 1 -4 7 -12 7 -23 1 -10 -6 -23 -6 -34 0 -10 5 -27 5 -42 -1 -14 -5 -26
-6 -26 -1 0 5 -15 6 -32 2 -18 -4 -44 -4 -58 -1 -14 4 -33 3 -42 -2 -10 -5
-19 -4 -23 2 -3 6 -15 6 -30 0 -15 -6 -27 -6 -30 0 -4 7 -13 6 -25 0 -12 -6
-21 -7 -25 0 -4 6 -15 6 -30 0 -14 -5 -25 -6 -25 -1 0 5 -15 6 -32 2 -18 -4
-44 -4 -58 -1 -14 4 -33 3 -42 -2 -10 -5 -19 -4 -23 2 -3 6 -15 6 -30 0 -15
-6 -27 -6 -30 0 -4 7 -13 6 -26 0 -10 -6 -19 -7 -19 -3 0 4 -4 1 -9 -6 -6 -9
-6 -22 -1 -31 5 -9 5 -22 0 -30 -5 -8 -5 -21 0 -30 5 -9 5 -22 0 -30 -5 -8 -5
-21 0 -30 5 -9 5 -22 0 -30 -5 -8 -5 -21 0 -30 5 -9 5 -22 0 -30 -5 -8 -5 -21
0 -31 5 -9 7 -19 4 -22 -3 -3 3 -10 15 -16 12 -7 22 -7 26 -2 3 6 17 6 35 1
17 -5 30 -5 30 0 0 6 10 6 23 1 12 -5 32 -5 45 0 13 5 22 5 22 -1 0 -5 12 -5
28 -1 15 5 37 5 49 0 13 -5 25 -4 28 1 3 6 15 6 30 0 15 -6 27 -6 30 0 3 6 15
6 30 0 15 -6 27 -6 30 1 4 5 11 7 16 3 13 -8 79 -11 79 -4 0 3 19 4 42 2 24
-1 53 -3 65 -3 23 -2 24 -16 3 -74 -4 -11 -8 -23 -9 -28 -1 -9 -31 -64 -56
-102 -32 -49 -74 -94 -135 -144 -14 -11 -31 -25 -37 -31 -7 -6 -15 -10 -18
-10 -2 -1 -10 -2 -17 -5 -7 -2 -31 -9 -53 -16 -22 -7 -44 -14 -50 -15 -160
-31 -286 -44 -492 -49 -78 -2 -147 -6 -152 -9 -5 -4 -12 -2 -15 3 -4 5 -18 6
-34 2 -27 -7 -85 -5 -109 4 -7 2 -15 0 -18 -5 -3 -5 -18 -5 -33 -1 -15 5 -37
5 -48 1 -11 -5 -27 -4 -34 0 -7 5 -23 4 -36 0 -12 -5 -25 -6 -29 -2 -3 3 -16
7 -28 7 -15 0 -22 6 -21 18 1 9 -2 17 -6 17 -5 0 -5 14 0 30 5 17 5 30 1 30
-4 0 -4 25 -1 55 3 31 4 58 2 60 -7 6 -8 75 -2 75 3 0 5 16 5 35 0 19 -3 35
-7 35 -4 0 -3 14 2 30 5 17 5 30 1 30 -4 0 -4 25 -1 55 3 31 4 58 2 60 -7 6
-8 75 -2 75 3 0 5 16 5 35 0 19 -3 35 -7 35 -4 0 -3 14 2 30 5 17 5 30 1 30
-4 0 -4 27 -1 60 3 33 3 60 -1 60 -4 0 -4 14 1 30 5 17 6 30 2 30 -4 0 -7 16
-7 35 0 19 2 35 5 35 3 0 4 19 2 42 -5 78 -3 299 3 309 4 5 2 9 -4 9 -6 0 -6
11 -1 30 5 17 5 30 0 30 -4 0 -4 16 0 35 4 19 4 35 0 35 -5 0 -5 14 0 30 5 17
6 30 2 30 -4 0 -7 92 -7 205 0 113 2 205 5 205 3 0 4 19 2 42 -4 57 -2 120 4
129 2 4 0 10 -5 13 -6 4 -6 18 -1 36 5 17 5 30 0 30 -4 0 -6 9 -3 19 5 20 41
33 57 20 5 -4 19 -3 32 1z m-326 -3683 c12 3 22 -1 26 -11 3 -9 10 -13 15 -10
5 3 9 0 9 -6 0 -5 13 -24 29 -40 l29 -31 -23 -48 c-13 -27 -35 -76 -49 -111
l-26 -62 25 4 c14 3 25 1 25 -6 0 -17 29 17 33 39 2 11 9 31 15 45 18 42 25
65 24 73 -1 4 6 2 15 -4 18 -11 56 -83 68 -127 6 -20 4 -23 -17 -20 -24 4 -39
-8 -98 -81 -19 -23 -45 -53 -57 -67 -12 -13 -34 -40 -50 -61 -33 -44 -61 -73
-69 -73 -4 0 -4 11 -2 25 3 14 2 25 -1 25 -7 0 -4 118 4 138 2 6 1 12 -4 12
-5 0 -5 18 -1 40 4 22 4 58 0 80 -4 22 -4 40 0 40 4 0 4 18 0 40 -4 23 -3 40
2 40 5 0 7 4 4 9 -4 5 -6 29 -6 53 0 23 0 55 0 70 0 22 5 27 27 30 16 2 29 0
31 -3 2 -4 12 -5 22 -2z m174 0 c3 3 6 4 6 0 0 -9 -30 -37 -41 -37 -5 0 -9 11
-9 25 0 22 3 24 19 16 10 -6 21 -7 25 -4z m-3413 -1761 c5 3 9 1 9 -4 0 -12
-40 -23 -53 -15 -6 3 -2 12 9 20 12 9 20 10 22 3 2 -5 8 -8 13 -4z m19 -105
c0 -5 3 -17 7 -27 5 -15 2 -16 -23 -10 -35 9 -49 21 -40 35 9 13 56 15 56 2z"/>
<path d="M1988 3365 c-2 -3 -18 -5 -36 -7 -37 -3 -36 2 -31 -178 0 -25 0 -49
-1 -55 -1 -5 -2 -35 -1 -65 2 -42 4 -50 11 -34 7 17 15 21 40 18 17 -2 36 -6
41 -9 5 -4 9 -2 9 4 0 6 11 6 28 1 19 -5 29 -4 30 4 0 6 1 67 1 136 0 69 0
136 1 149 0 33 -8 43 -28 32 -9 -5 -26 -5 -38 -1 -12 5 -24 7 -26 5z"/>
<path d="M3689 3343 c5 -10 10 -22 11 -28 6 -24 12 -42 26 -67 8 -14 14 -32
14 -39 0 -15 -56 -105 -87 -139 -12 -13 -21 -25 -20 -26 1 0 25 -4 53 -7 50
-6 50 -5 74 33 l23 38 53 -36 c49 -33 68 -38 136 -33 7 1 -17 28 -52 61 -63
59 -77 87 -59 122 6 10 5 19 -1 23 -6 4 -8 10 -5 15 3 5 3 21 -1 35 l-7 26
-28 -27 c-16 -15 -30 -26 -32 -23 -49 66 -72 89 -88 89 -16 0 -18 -4 -10 -17z"/>
<path d="M3840 3351 c0 -18 18 -21 30 -6 10 13 9 15 -9 15 -11 0 -21 -4 -21
-9z"/>
<path d="M4786 2677 c3 -10 9 -15 12 -12 3 3 0 11 -7 18 -10 9 -11 8 -5 -6z"/>
</g>
</svg>
